<svg width="616" height="210" xmlns="http://www.w3.org/2000/svg"><defs><filter x="-10.3%" y="-4%" width="113.2%" height="113%" filterUnits="objectBoundingBox" id="a"><feOffset dx="-5" dy="4" in="SourceAlpha" result="shadowOffsetOuter1"/><feGaussianBlur stdDeviation="2" in="shadowOffsetOuter1" result="shadowBlurOuter1"/><feColorMatrix values="0 0 0 0 0 0 0 0 0 0 0 0 0 0 0 0 0 0 0.5 0" in="shadowBlurOuter1" result="shadowMatrixOuter1"/><feMerge><feMergeNode in="shadowMatrixOuter1"/><feMergeNode in="SourceGraphic"/></feMerge></filter></defs><g filter="url(#a)" transform="translate(233 24)" fill="none" fill-rule="evenodd"><g stroke-width="4"><path d="M70.54 146.737c.15.201.305.403.46.6-1.153.636-3.88.383-5.182.16-3.88-.663-6.415-2.987-7.185-3.71a15.11 15.11 0 01-1.733-1.949 15.98 15.98 0 01-2.658-5.551c1.615-.41 6.51-1.421 11.134 1.153a.59.59 0 00.027.066c.045.125.094.25.145.372.066.167.135.333.204.5.028.07.059.14.087.205.062.146.124.292.186.434a36.725 36.725 0 00.842 1.796c.07.146.142.289.218.431.045.09.093.177.138.264.083.164.172.327.262.487.232.424.466.844.715 1.254.1.173.204.343.307.514l.121.194a35.208 35.208 0 001.398 2.084c.066.095.135.185.2.275.104.143.208.282.315.42" stroke="#FF6C6C" fill="#FF6C6C"/><path d="M53.158 55.59c-1.985 4.196-2.87 7.868-3.27 10.064a23.94 23.94 0 01-7.623-.91c-3.135-.897-6.384-2.439-9.715-2.196-3.87.282-6.152 3.235-9.256 5.142-7.516 4.617-18.17-2.48-21.064-9.818-2.313-5.857 5.652-6.149 8.894-3.484 1.446 1.188 8.054 8.518 8.72 2.203.26-2.484-3.048-5.562-4.788-6.962C9.128 44.852 1.62 37.723.297 29.782c-.48-2.866.673-7.136 3.756-8.008 3.315-.945 6.384 2.359 7.792 5.01 3.384 6.354 5.459 12.43 10.948 17.474 5.8 5.325 13.416 9.258 21.019 11.151 3.48.869 6.421.806 9.346.18M62.23 37.96a24.32 24.32 0 011.64 3.769c-4.474 3.786-7.06 7.549-8.075 9.116l-.02.03-.045-.03c-.007-3.078-.58-6.035-2.217-9.328-3.497-7.052-8.973-13.674-15.405-18.207-6.086-4.29-12.432-5.003-19.334-6.934-2.879-.81-6.752-3.099-6.562-6.563.176-3.213 4.063-5.28 6.95-5.433 7.988-.434 16.54 5.381 22.468 10.161 1.74 1.404 5.448 3.978 7.796 3.183 5.983-2.036-2.57-6.92-4.04-8.084-3.29-2.602-4.747-10.488 1.44-9.495C54.573 1.385 63.78 10.3 60.943 18.686c-1.17 3.464-3.535 6.35-2.962 10.21.49 3.328 2.693 6.184 4.25 9.063" stroke="#C16363" fill="#C16363"/><path d="M139.124 122.586c.007.322.01.646.01.969 0 21.212-17.086 38.405-38.163 38.405-12.156 0-22.983-5.715-29.971-14.622-.155-.198-.31-.4-.46-.601a18.69 18.69 0 01-.313-.42c-.066-.09-.135-.181-.2-.275l-.27-.379c-.294-.417-.577-.84-.853-1.271-.093-.143-.183-.289-.276-.435l-.12-.194c-.104-.17-.208-.34-.308-.514a31.81 31.81 0 01-.715-1.255c-.09-.16-.176-.322-.262-.486-.045-.087-.093-.173-.138-.264l-.218-.43a36.523 36.523 0 01-1.029-2.23c-.027-.067-.058-.136-.086-.206-.072-.163-.138-.33-.204-.5a7.018 7.018 0 01-.144-.372 38.499 38.499 0 01-2.6-13.952c0-6.42 1.567-12.474 4.336-17.793 3.414 2.22 11.186 6.444 21.526 7.216 18.892 1.407 31.138-3.96 38.62-9.606.003 0 .003-.004.007-.004a41.082 41.082 0 002.83-2.334l1.668-.125a38.373 38.373 0 017.333 21.678m-13.727-69.428l-.135.066c-1.747-1.775-5.658-5.26-11.738-6.948-2.49-.691-9.491-2.23-16.917 1.042-10.623 4.683-13.865 15.588-14.5 17.718-4.796 16.119 6.37 29.546 7.25 30.57 1.305 1.522 4.557 5.02 9.466 7.775l-31.683 2.38a27.23 27.23 0 01-1.526-1.056c-5.603-4.193-9.146-9.102-11.276-12.875.408-.34.69-.597.84-.74 3.566-3.328 5.244-6.77 5.74-7.854 1.399-3.04 3.705-8.053 1.665-10.6-1.878-2.344-7.167-2.264-12.584.737-.218.15-.45.313-.694.487a39.098 39.098 0 01.348-6.74c.049-.361.125-.858.235-1.466.4-2.196 1.285-5.868 3.27-10.064.217-.462.452-.931.697-1.407a42.25 42.25 0 011.94-3.339c1.015-1.566 3.601-5.329 8.076-9.115a42.164 42.164 0 015.807-4.138c10.08-5.965 20.007-6.117 24.944-5.777 1.08.073 2.33.219 2.33.219 2.918.333 6.204.726 10.012 2.084 1.264.452 3.232 1.164 5.555 2.613a26.097 26.097 0 013.076 2.25c1.9 1.627 3.045 3.1 4.143 4.517 2.03 2.616 3.335 4.978 3.798 5.906l1.036 2.084.69 1.39.135.281" stroke="#FF9292" fill="#FF9292"/><path d="M112.985 107.179c6.536-.01 11.59-2.304 14.3-3.808-7.481 5.645-19.727 11.013-38.619 9.606-10.34-.772-18.111-4.996-21.526-7.216l31.683-2.38c3.78 2.123 8.545 3.804 14.162 3.798" stroke="#FF6C6C" fill="#FF6C6C"/><path d="M98.823 103.381l31.3-2.348a41.082 41.082 0 01-2.83 2.334c-.004 0-.004.004-.008.004-2.71 1.504-7.764 3.797-14.3 3.808-5.617.006-10.381-1.675-14.162-3.798m45.079-39.752c.004.233.004.469.004.712 0 18.065-6.56 27.792-6.56 27.792s-2.04 4.231-7.223 8.9l-31.3 2.348c-4.91-2.755-8.161-6.253-9.466-7.774-.88-1.025-12.046-14.452-7.25-30.571.635-2.13 3.877-13.035 14.5-17.718 7.426-3.272 14.428-1.733 16.917-1.042 6.08 1.689 9.991 5.173 11.738 6.948l.135-.066c.231.494.342.737.556 1.108 0 0 .29.504.69 1.042.808 1.088 3.45 4.805 5.524 4.864 1.174.031 2.4-.74 3.518-2.126 1.067 3.252 4.112 5.6 7.702 5.6.173 0 .346-.007.515-.017m-81.319 9.008c2.04 2.546-.266 7.56-1.664 10.599-.497 1.084-2.175 4.526-5.742 7.854-.148.143-.431.4-.839.74-1.488-2.633-2.285-4.71-2.613-5.603a40.008 40.008 0 01-2.42-12.368c.245-.173.476-.336.693-.486 5.417-3.001 10.707-3.081 12.585-.736" stroke="#FFF" fill="#FFF"/><path d="M54.338 91.83c-1.36 1.143-4.119 3.193-8.033 4.725a29.658 29.658 0 01-11.273 2.025 35.073 35.073 0 014.61-14.09 34.893 34.893 0 019.663-10.63 40.015 40.015 0 002.42 12.367c.328.893 1.125 2.97 2.613 5.604" stroke="#FFF" fill="#FFF"/></g><path d="M121 80a5 5 0 11-10 0 5 5 0 0110 0" fill="#000"/><path d="M121 80a5 5 0 11-10 0 5 5 0 0110 0z" stroke="#000" stroke-width="6"/><path d="M151 57a8 8 0 11-16 0 8 8 0 0116 0" fill="#FF6C6C"/></g></svg>